# xmcd
#
# Track frame offsets:
#	150
#	18097
#	37787
#	57637
#	76465
#	96930
#	101495
#	122117
#	141810
#	157040
#	177800
#
# Disc length: 2589 seconds
#
# Revision: 11
# Processed by: cddbd v1.5.2PL0 Copyright (c) Steve Scherf et al.
# Submitted via: EasyCDDAExtractor 15.3.0.1
#
DISCID=880a1b0b
DTITLE=Toni Braxton - Snowflakes
DYEAR=2001
DGENRE=R&B
TTITLE0=Holiday Celebrate
TTITLE1=Christmas In Jamaica (Featuring Shaggy)
TTITLE2=Snowflakes Of Love
TTITLE3=Christmas Time Is Here
TTITLE4=Santa Please...
TTITLE5=Pretty Please (Interlude)
TTITLE6=Have Yourself A Merry Little Christmas
TTITLE7=This Time Next Year
TTITLE8=The Christmas Song
TTITLE9=Snowflakes Of Love (Brent Fischer Instrumental) (Bonus Track)
TTITLE10=Christmas In Jamaica (Remix) (Featuring Shaggy) (Bonus Track)
EXTD=
EXTT0=
EXTT1=
EXTT2=
EXTT3=
EXTT4=
EXTT5=
EXTT6=
EXTT7=
EXTT8=
EXTT9=
EXTT10=
PLAYORDER=
